<?xml version="1.0" encoding="utf-8"?>
<!-- Generator: Adobe Illustrator 18.0.0, SVG Export Plug-In . SVG Version: 6.00 Build 0)  -->
<!DOCTYPE svg PUBLIC "-//W3C//DTD SVG 1.1//EN" "http://www.w3.org/Graphics/SVG/1.1/DTD/svg11.dtd">
<svg version="1.1" id="Layer_1" xmlns="http://www.w3.org/2000/svg" xmlns:xlink="http://www.w3.org/1999/xlink" x="0px" y="0px"
	 viewBox="0 0 1640 554.3" enable-background="new 0 0 1640 554.3" xml:space="preserve">
<rect x="-0.5" y="0" width="1641" height="556.6"/>
<g opacity="0.6">
	<polygon opacity="0.2" fill="#B2D048" points="400,69.3 400,23.1 360,0 360,46.2 	"/>
	<polygon fill="#C2D959" points="360,0 440,0 400,23.1 	"/>
	<polygon opacity="0.4" fill="#ACC838" points="480,69.3 480,23.1 520,0 520,46.2 	"/>
	<polygon fill="#B2D048" points="480,69.3 480,23.1 440,0 440,46.2 	"/>
	<polygon fill="#ACC838" points="560,69.3 560,23.1 600,0 600,46.2 	"/>
	<polygon opacity="0.4" fill="#B2D048" points="560,69.3 560,23.1 520,0 520,46.2 	"/>
	<polygon opacity="0.2" fill="#C2D959" points="520,0 600,0 560,23.1 	"/>
	<polygon fill="#ACC838" points="640,69.3 640,23.1 680,0 680,46.2 	"/>
	<polygon opacity="0.4" fill="#B2D048" points="640,69.3 640,23.1 600,0 600,46.2 	"/>
	<polygon fill="#ACC838" points="720,69.3 720,23.1 760,0 760,46.2 	"/>
	<polygon fill="#B2D048" points="720,69.3 720,23.1 680,0 680,46.2 	"/>
	<polygon opacity="0.2" fill="#C2D959" points="680,0 760,0 720,23.1 	"/>
	<polygon fill="#ACC838" points="800,69.3 800,23.1 840,0 840,46.2 	"/>
	<polygon fill="#C2D959" points="760,0 840,0 800,23.1 	"/>
	<polygon opacity="0.4" fill="#ACC838" points="880,69.3 880,23.1 920,0 920,46.2 	"/>
	<polygon fill="#B2D048" points="880,69.3 880,23.1 840,0 840,46.2 	"/>
	<polygon fill="#ACC838" points="960,69.3 960,23.1 1000,0 1000,46.2 	"/>
	<polygon fill="#C2D959" points="920,0 1000,0 960,23.1 	"/>
	<polygon fill="#B2D048" points="1040,69.3 1040,23.1 1000,0 1000,46.2 	"/>
	<polygon opacity="0.2" fill="#C2D959" points="1000,0 1080,0 1040,23.1 	"/>
	<polygon opacity="0.4" fill="#ACC838" points="1120,69.3 1120,23.1 1160,0 1160,46.2 	"/>
	<polygon fill="#B2D048" points="1120,69.3 1120,23.1 1080,0 1080,46.2 	"/>
	<polygon fill="#C2D959" points="1080,0 1160,0 1120,23.1 	"/>
	<polygon opacity="0.2" fill="#ACC838" points="1200,69.3 1200,23.1 1240,0 1240,46.2 	"/>
	<polygon opacity="0.4" fill="#C2D959" points="1160,0 1240,0 1200,23.1 	"/>
	<polygon fill="#ACC838" points="1280,69.3 1280,23.1 1320,0 1320,46.2 	"/>
	<polygon opacity="0.4" fill="#B2D048" points="1280,69.3 1280,23.1 1240,0 1240,46.2 	"/>
	<polygon fill="#ACC838" points="1360,69.3 1360,23.1 1400,0 1400,46.2 	"/>
	<polygon opacity="0.2" fill="#B2D048" points="1360,69.3 1360,23.1 1320,0 1320,46.2 	"/>
	<polygon fill="#C2D959" points="1320,0 1400,0 1360,23.1 	"/>
	<polygon fill="#ACC838" points="1440,69.3 1440,23.1 1480,0 1480,46.2 	"/>
	<polygon fill="#C2D959" points="1400,0 1480,0 1440,23.1 	"/>
	<polygon fill="#ACC838" points="1520,69.3 1520,23.1 1560,0 1560,46.2 	"/>
	<polygon opacity="0.4" fill="#B2D048" points="1520,69.3 1520,23.1 1480,0 1480,46.2 	"/>
	<polygon opacity="0.4" fill="#ACC838" points="1600,69.3 1600,23.1 1640,0 1640,46.2 	"/>
	<polygon opacity="0.2" fill="#C2D959" points="1560,0 1640,0 1600,23.1 	"/>
	<polygon opacity="0.2" fill="#B2D048" points="80,69.3 80,23.1 40,0 40,46.2 	"/>
	<polygon fill="#C2D959" points="40,0 120,0 80,23.1 	"/>
	<polygon fill="#ACC838" points="160,69.3 160,23.1 200,0 200,46.2 	"/>
	<polygon fill="#B2D048" points="160,69.3 160,23.1 120,0 120,46.2 	"/>
	<polygon fill="#ACC838" points="240,69.3 240,23.1 280,0 280,46.2 	"/>
	<polygon opacity="0.2" fill="#B2D048" points="240,69.3 240,23.1 200,0 200,46.2 	"/>
	<polygon fill="#ACC838" points="320,69.3 320,23.1 360,0 360,46.2 	"/>
	<polygon fill="#B2D048" points="320,69.3 320,23.1 280,0 280,46.2 	"/>
	<polygon opacity="0.4" fill="#C2D959" points="280,0 360,0 320,23.1 	"/>
	<polygon fill="#C2D959" points="360,554.3 400,531.2 440,554.3 	"/>
	<polygon fill="#C2D959" points="440,554.3 480,531.2 520,554.3 	"/>
	<polygon fill="#C2D959" points="600,554.3 640,531.2 680,554.3 	"/>
	<polygon fill="#C2D959" points="840,554.3 880,531.2 920,554.3 	"/>
	<polygon fill="#C2D959" points="920,554.3 960,531.2 1000,554.3 	"/>
	<polygon fill="#C2D959" points="1080,554.3 1120,531.2 1160,554.3 	"/>
	<polygon opacity="0.4" fill="#C2D959" points="1160,554.3 1200,531.2 1240,554.3 	"/>
	<polygon fill="#C2D959" points="1240,554.3 1280,531.2 1320,554.3 	"/>
	<polygon fill="#C2D959" points="1400,554.3 1440,531.2 1480,554.3 	"/>
	<polygon fill="#C2D959" points="1560,554.3 1600,531.2 1640,554.3 	"/>
	<polygon fill="#C2D959" points="120,554.3 160,531.2 200,554.3 	"/>
	<polygon opacity="0.4" fill="#C2D959" points="280,554.3 320,531.2 360,554.3 	"/>
	<polygon fill="#ACC838" points="360,138.6 360,92.4 400,69.3 400,115.5 	"/>
	<polygon fill="#B2D048" points="360,138.6 360,92.4 320,69.3 320,115.5 	"/>
	<polygon opacity="0.4" fill="#C2D959" points="320,69.3 360,46.2 400,69.3 360,92.4 	"/>
	<polygon opacity="0.2" fill="#ACC838" points="440,138.6 440,92.4 480,69.3 480,115.5 	"/>
	<polygon opacity="0.4" fill="#B2D048" points="440,138.6 440,92.4 400,69.3 400,115.5 	"/>
	<polygon fill="#C2D959" points="400,69.3 440,46.2 480,69.3 440,92.4 	"/>
	<polygon fill="#ACC838" points="520,138.6 520,92.4 560,69.3 560,115.5 	"/>
	<polygon opacity="0.4" fill="#B2D048" points="520,138.6 520,92.4 480,69.3 480,115.5 	"/>
	<polygon fill="#C2D959" points="480,69.3 520,46.2 560,69.3 520,92.4 	"/>
	<polygon fill="#ACC838" points="600,138.6 600,92.4 640,69.3 640,115.5 	"/>
	<polygon opacity="0.2" fill="#B2D048" points="600,138.6 600,92.4 560,69.3 560,115.5 	"/>
	<polygon opacity="0.4" fill="#ACC838" points="680,138.6 680,92.4 720,69.3 720,115.5 	"/>
	<polygon fill="#B2D048" points="680,138.6 680,92.4 640,69.3 640,115.5 	"/>
	<polygon fill="#ACC838" points="760,138.6 760,92.4 800,69.3 800,115.5 	"/>
	<polygon opacity="0.2" fill="#B2D048" points="760,138.6 760,92.4 720,69.3 720,115.5 	"/>
	<polygon opacity="0.4" fill="#C2D959" points="720,69.3 760,46.2 800,69.3 760,92.4 	"/>
	<polygon fill="#ACC838" points="840,138.6 840,92.4 880,69.3 880,115.5 	"/>
	<polygon fill="#C2D959" points="800,69.3 840,46.2 880,69.3 840,92.4 	"/>
	<polygon fill="#ACC838" points="920,138.6 920,92.4 960,69.3 960,115.5 	"/>
	<polygon opacity="0.2" fill="#B2D048" points="920,138.6 920,92.4 880,69.3 880,115.5 	"/>
	<polygon opacity="0.4" fill="#C2D959" points="880,69.3 920,46.2 960,69.3 920,92.4 	"/>
	<polygon fill="#ACC838" points="1000,138.6 1000,92.4 1040,69.3 1040,115.5 	"/>
	<polygon opacity="0.2" fill="#B2D048" points="1000,138.6 1000,92.4 960,69.3 960,115.5 	"/>
	<polygon fill="#ACC838" points="1080,138.6 1080,92.4 1120,69.3 1120,115.5 	"/>
	<polygon fill="#B2D048" points="1080,138.6 1080,92.4 1040,69.3 1040,115.5 	"/>
	<polygon fill="#ACC838" points="1160,138.6 1160,92.4 1200,69.3 1200,115.5 	"/>
	<polygon opacity="0.2" fill="#C2D959" points="1120,69.3 1160,46.2 1200,69.3 1160,92.4 	"/>
	<polygon fill="#ACC838" points="1240,138.6 1240,92.4 1280,69.3 1280,115.5 	"/>
	<polygon fill="#B2D048" points="1240,138.6 1240,92.4 1200,69.3 1200,115.5 	"/>
	<polygon fill="#ACC838" points="1320,138.6 1320,92.4 1360,69.3 1360,115.5 	"/>
	<polygon fill="#C2D959" points="1280,69.3 1320,46.2 1360,69.3 1320,92.4 	"/>
	<polygon opacity="0.2" fill="#ACC838" points="1400,138.6 1400,92.4 1440,69.3 1440,115.5 	"/>
	<polygon opacity="0.4" fill="#C2D959" points="1360,69.3 1400,46.2 1440,69.3 1400,92.4 	"/>
	<polygon fill="#ACC838" points="1480,138.6 1480,92.4 1520,69.3 1520,115.5 	"/>
	<polygon opacity="0.2" fill="#C2D959" points="1440,69.3 1480,46.2 1520,69.3 1480,92.4 	"/>
	<polygon opacity="0.4" fill="#B2D048" points="1560,138.6 1560,92.4 1520,69.3 1520,115.5 	"/>
	<polygon fill="#C2D959" points="1520,69.3 1560,46.2 1600,69.3 1560,92.4 	"/>
	<polygon fill="#ACC838" points="40,138.6 40,92.4 80,69.3 80,115.5 	"/>
	<polygon opacity="0.4" fill="#B2D048" points="40,138.6 40,92.4 0,69.3 0,115.5 	"/>
	<polygon opacity="0.2" fill="#C2D959" points="0,69.3 40,46.2 80,69.3 40,92.4 	"/>
	<polygon fill="#ACC838" points="120,138.6 120,92.4 160,69.3 160,115.5 	"/>
	<polygon fill="#ACC838" points="200,138.6 200,92.4 240,69.3 240,115.5 	"/>
	<polygon opacity="0.4" fill="#B2D048" points="200,138.6 200,92.4 160,69.3 160,115.5 	"/>
	<polygon opacity="0.2" fill="#C2D959" points="160,69.3 200,46.2 240,69.3 200,92.4 	"/>
	<polygon fill="#ACC838" points="280,138.6 280,92.4 320,69.3 320,115.5 	"/>
	<polygon fill="#B2D048" points="280,138.6 280,92.4 240,69.3 240,115.5 	"/>
	<polygon fill="#B2D048" points="400,207.8 400,161.7 360,138.6 360,184.8 	"/>
	<polygon opacity="0.2" fill="#C2D959" points="360,138.6 400,115.5 440,138.6 400,161.7 	"/>
	<polygon fill="#ACC838" points="480,207.8 480,161.7 520,138.6 520,184.8 	"/>
	<polygon fill="#B2D048" points="480,207.8 480,161.7 440,138.6 440,184.8 	"/>
	<polygon opacity="0.2" fill="#ACC838" points="560,207.8 560,161.7 600,138.6 600,184.8 	"/>
	<polygon fill="#B2D048" points="560,207.8 560,161.7 520,138.6 520,184.8 	"/>
	<polygon fill="#ACC838" points="640,207.8 640,161.7 680,138.6 680,184.8 	"/>
	<polygon fill="#B2D048" points="640,207.8 640,161.7 600,138.6 600,184.8 	"/>
	<polygon opacity="0.2" fill="#C2D959" points="600,138.6 640,115.5 680,138.6 640,161.7 	"/>
	<polygon fill="#ACC838" points="720,207.8 720,161.7 760,138.6 760,184.8 	"/>
	<polygon fill="#C2D959" points="680,138.6 720,115.5 760,138.6 720,161.7 	"/>
	<polygon fill="#ACC838" points="800,207.8 800,161.7 840,138.6 840,184.8 	"/>
	<polygon fill="#C2D959" points="760,138.6 800,115.5 840,138.6 800,161.7 	"/>
	<polygon fill="#ACC838" points="880,207.8 880,161.7 920,138.6 920,184.8 	"/>
	<polygon opacity="0.2" fill="#B2D048" points="880,207.8 880,161.7 840,138.6 840,184.8 	"/>
	<polygon fill="#ACC838" points="960,207.8 960,161.7 1000,138.6 1000,184.8 	"/>
	<polygon fill="#B2D048" points="960,207.8 960,161.7 920,138.6 920,184.8 	"/>
	<polygon fill="#ACC838" points="1040,207.8 1040,161.7 1080,138.6 1080,184.8 	"/>
	<polygon opacity="0.4" fill="#C2D959" points="1000,138.6 1040,115.5 1080,138.6 1040,161.7 	"/>
	<polygon fill="#B2D048" points="1120,207.8 1120,161.7 1080,138.6 1080,184.8 	"/>
	<polygon opacity="0.2" fill="#C2D959" points="1080,138.6 1120,115.5 1160,138.6 1120,161.7 	"/>
	<polygon fill="#ACC838" points="1200,207.8 1200,161.7 1240,138.6 1240,184.8 	"/>
	<polygon fill="#B2D048" points="1200,207.8 1200,161.7 1160,138.6 1160,184.8 	"/>
	<polygon opacity="0.2" fill="#C2D959" points="1160,138.6 1200,115.5 1240,138.6 1200,161.7 	"/>
	<polygon fill="#ACC838" points="1280,207.8 1280,161.7 1320,138.6 1320,184.8 	"/>
	<polygon opacity="0.2" fill="#C2D959" points="1240,138.6 1280,115.5 1320,138.6 1280,161.7 	"/>
	<polygon opacity="0.2" fill="#B2D048" points="1360,207.8 1360,161.7 1320,138.6 1320,184.8 	"/>
	<polygon fill="#C2D959" points="1320,138.6 1360,115.5 1400,138.6 1360,161.7 	"/>
	<polygon fill="#ACC838" points="1440,207.8 1440,161.7 1480,138.6 1480,184.8 	"/>
	<polygon fill="#B2D048" points="1440,207.8 1440,161.7 1400,138.6 1400,184.8 	"/>
	<polygon fill="#ACC838" points="1520,207.8 1520,161.7 1560,138.6 1560,184.8 	"/>
	<polygon opacity="0.2" fill="#B2D048" points="1520,207.8 1520,161.7 1480,138.6 1480,184.8 	"/>
	<polygon opacity="0.4" fill="#ACC838" points="1600,207.8 1600,161.7 1640,138.6 1640,184.8 	"/>
	<polygon opacity="0.2" fill="#C2D959" points="1560,138.6 1600,115.5 1640,138.6 1600,161.7 	"/>
	<polygon fill="#ACC838" points="80,207.8 80,161.7 120,138.6 120,184.8 	"/>
	<polygon opacity="0.4" fill="#C2D959" points="40,138.6 80,115.5 120,138.6 80,161.7 	"/>
	<polygon opacity="0.4" fill="#B2D048" points="160,207.8 160,161.7 120,138.6 120,184.8 	"/>
	<polygon fill="#C2D959" points="120,138.6 160,115.5 200,138.6 160,161.7 	"/>
	<polygon fill="#ACC838" points="240,207.8 240,161.7 280,138.6 280,184.8 	"/>
	<polygon opacity="0.4" fill="#B2D048" points="240,207.8 240,161.7 200,138.6 200,184.8 	"/>
	<polygon opacity="0.2" fill="#ACC838" points="320,207.8 320,161.7 360,138.6 360,184.8 	"/>
	<polygon fill="#B2D048" points="320,207.8 320,161.7 280,138.6 280,184.8 	"/>
	<polygon fill="#ACC838" points="360,277.1 360,230.9 400,207.8 400,254 	"/>
	<polygon opacity="0.4" fill="#B2D048" points="360,277.1 360,230.9 320,207.8 320,254 	"/>
	<polygon fill="#C2D959" points="320,207.8 360,184.8 400,207.8 360,230.9 	"/>
	<polygon fill="#ACC838" points="440,277.1 440,230.9 480,207.8 480,254 	"/>
	<polygon opacity="0.4" fill="#B2D048" points="440,277.1 440,230.9 400,207.8 400,254 	"/>
	<polygon fill="#C2D959" points="400,207.8 440,184.8 480,207.8 440,230.9 	"/>
	<polygon fill="#ACC838" points="520,277.1 520,230.9 560,207.8 560,254 	"/>
	<polygon opacity="0.4" fill="#C2D959" points="480,207.8 520,184.8 560,207.8 520,230.9 	"/>
	<polygon opacity="0.2" fill="#ACC838" points="600,277.1 600,230.9 640,207.8 640,254 	"/>
	<polygon fill="#B2D048" points="600,277.1 600,230.9 560,207.8 560,254 	"/>
	<polygon fill="#C2D959" points="560,207.8 600,184.8 640,207.8 600,230.9 	"/>
	<polygon fill="#ACC838" points="680,277.1 680,230.9 720,207.8 720,254 	"/>
	<polygon fill="#B2D048" points="680,277.1 680,230.9 640,207.8 640,254 	"/>
	<polygon fill="#ACC838" points="760,277.1 760,230.9 800,207.8 800,254 	"/>
	<polygon opacity="0.2" fill="#B2D048" points="760,277.1 760,230.9 720,207.8 720,254 	"/>
	<polygon opacity="0.4" fill="#C2D959" points="720,207.8 760,184.8 800,207.8 760,230.9 	"/>
	<polygon opacity="0.2" fill="#ACC838" points="840,277.1 840,230.9 880,207.8 880,254 	"/>
	<polygon fill="#B2D048" points="840,277.1 840,230.9 800,207.8 800,254 	"/>
	<polygon opacity="0.4" fill="#ACC838" points="920,277.1 920,230.9 960,207.8 960,254 	"/>
	<polygon fill="#B2D048" points="920,277.1 920,230.9 880,207.8 880,254 	"/>
	<polygon opacity="0.4" fill="#C2D959" points="880,207.8 920,184.8 960,207.8 920,230.9 	"/>
	<polygon fill="#ACC838" points="1000,277.1 1000,230.9 1040,207.8 1040,254 	"/>
	<polygon opacity="0.2" fill="#B2D048" points="1000,277.1 1000,230.9 960,207.8 960,254 	"/>
	<polygon opacity="0.2" fill="#ACC838" points="1080,277.1 1080,230.9 1120,207.8 1120,254 	"/>
	<polygon fill="#B2D048" points="1080,277.1 1080,230.9 1040,207.8 1040,254 	"/>
	<polygon opacity="0.2" fill="#C2D959" points="1040,207.8 1080,184.8 1120,207.8 1080,230.9 	"/>
	<polygon fill="#B2D048" points="1160,277.1 1160,230.9 1120,207.8 1120,254 	"/>
	<polygon fill="#C2D959" points="1120,207.8 1160,184.8 1200,207.8 1160,230.9 	"/>
	<polygon opacity="0.4" fill="#ACC838" points="1240,277.1 1240,230.9 1280,207.8 1280,254 	"/>
	<polygon fill="#B2D048" points="1240,277.1 1240,230.9 1200,207.8 1200,254 	"/>
	<polygon fill="#ACC838" points="1320,277.1 1320,230.9 1360,207.8 1360,254 	"/>
	<polygon fill="#B2D048" points="1320,277.1 1320,230.9 1280,207.8 1280,254 	"/>
	<polygon opacity="0.2" fill="#C2D959" points="1280,207.8 1320,184.8 1360,207.8 1320,230.9 	"/>
	<polygon opacity="0.4" fill="#ACC838" points="1400,277.1 1400,230.9 1440,207.8 1440,254 	"/>
	<polygon opacity="0.4" fill="#C2D959" points="1360,207.8 1400,184.8 1440,207.8 1400,230.9 	"/>
	<polygon fill="#ACC838" points="1480,277.1 1480,230.9 1520,207.8 1520,254 	"/>
	<polygon fill="#B2D048" points="1480,277.1 1480,230.9 1440,207.8 1440,254 	"/>
	<polygon fill="#ACC838" points="1560,277.1 1560,230.9 1600,207.8 1600,254 	"/>
	<polygon fill="#B2D048" points="1560,277.1 1560,230.9 1520,207.8 1520,254 	"/>
	<polygon fill="#ACC838" points="40,277.1 40,230.9 80,207.8 80,254 	"/>
	<polygon opacity="0.2" fill="#B2D048" points="40,277.1 40,230.9 0,207.8 0,254 	"/>
	<polygon fill="#C2D959" points="0,207.8 40,184.8 80,207.8 40,230.9 	"/>
	<polygon opacity="0.2" fill="#ACC838" points="120,277.1 120,230.9 160,207.8 160,254 	"/>
	<polygon fill="#B2D048" points="120,277.1 120,230.9 80,207.8 80,254 	"/>
	<polygon fill="#ACC838" points="200,277.1 200,230.9 240,207.8 240,254 	"/>
	<polygon opacity="0.2" fill="#C2D959" points="160,207.8 200,184.8 240,207.8 200,230.9 	"/>
	<polygon fill="#B2D048" points="280,277.1 280,230.9 240,207.8 240,254 	"/>
	<polygon fill="#C2D959" points="240,207.8 280,184.8 320,207.8 280,230.9 	"/>
	<polygon fill="#ACC838" points="400,346.4 400,300.2 440,277.1 440,323.3 	"/>
	<polygon opacity="0.2" fill="#B2D048" points="400,346.4 400,300.2 360,277.1 360,323.3 	"/>
	<polygon opacity="0.2" fill="#C2D959" points="360,277.1 400,254 440,277.1 400,300.2 	"/>
	<polygon fill="#B2D048" points="480,346.4 480,300.2 440,277.1 440,323.3 	"/>
	<polygon opacity="0.4" fill="#C2D959" points="440,277.1 480,254 520,277.1 480,300.2 	"/>
	<polygon fill="#B2D048" points="560,346.4 560,300.2 520,277.1 520,323.3 	"/>
	<polygon opacity="0.2" fill="#C2D959" points="520,277.1 560,254 600,277.1 560,300.2 	"/>
	<polygon opacity="0.2" fill="#ACC838" points="640,346.4 640,300.2 680,277.1 680,323.3 	"/>
	<polygon fill="#B2D048" points="640,346.4 640,300.2 600,277.1 600,323.3 	"/>
	<polygon fill="#C2D959" points="600,277.1 640,254 680,277.1 640,300.2 	"/>
	<polygon fill="#B2D048" points="720,346.4 720,300.2 680,277.1 680,323.3 	"/>
	<polygon opacity="0.4" fill="#C2D959" points="680,277.1 720,254 760,277.1 720,300.2 	"/>
	<polygon fill="#ACC838" points="800,346.4 800,300.2 840,277.1 840,323.3 	"/>
	<polygon opacity="0.2" fill="#B2D048" points="800,346.4 800,300.2 760,277.1 760,323.3 	"/>
	<polygon fill="#ACC838" points="880,346.4 880,300.2 920,277.1 920,323.3 	"/>
	<polygon fill="#B2D048" points="880,346.4 880,300.2 840,277.1 840,323.3 	"/>
	<polygon fill="#ACC838" points="960,346.4 960,300.2 1000,277.1 1000,323.3 	"/>
	<polygon fill="#C2D959" points="920,277.1 960,254 1000,277.1 960,300.2 	"/>
	<polygon fill="#ACC838" points="1040,346.4 1040,300.2 1080,277.1 1080,323.3 	"/>
	<polygon opacity="0.2" fill="#B2D048" points="1040,346.4 1040,300.2 1000,277.1 1000,323.3 	"/>
	<polygon fill="#C2D959" points="1000,277.1 1040,254 1080,277.1 1040,300.2 	"/>
	<polygon fill="#ACC838" points="1120,346.4 1120,300.2 1160,277.1 1160,323.3 	"/>
	<polygon opacity="0.4" fill="#B2D048" points="1120,346.4 1120,300.2 1080,277.1 1080,323.3 	"/>
	<polygon fill="#B2D048" points="1200,346.4 1200,300.2 1160,277.1 1160,323.3 	"/>
	<polygon opacity="0.2" fill="#C2D959" points="1160,277.1 1200,254 1240,277.1 1200,300.2 	"/>
	<polygon fill="#ACC838" points="1280,346.4 1280,300.2 1320,277.1 1320,323.3 	"/>
	<polygon fill="#B2D048" points="1280,346.4 1280,300.2 1240,277.1 1240,323.3 	"/>
	<polygon fill="#ACC838" points="1360,346.4 1360,300.2 1400,277.1 1400,323.3 	"/>
	<polygon opacity="0.4" fill="#B2D048" points="1360,346.4 1360,300.2 1320,277.1 1320,323.3 	"/>
	<polygon fill="#ACC838" points="1440,346.4 1440,300.2 1480,277.1 1480,323.3 	"/>
	<polygon opacity="0.4" fill="#B2D048" points="1440,346.4 1440,300.2 1400,277.1 1400,323.3 	"/>
	<polygon opacity="0.2" fill="#C2D959" points="1400,277.1 1440,254 1480,277.1 1440,300.2 	"/>
	<polygon fill="#ACC838" points="1520,346.4 1520,300.2 1560,277.1 1560,323.3 	"/>
	<polygon fill="#B2D048" points="1520,346.4 1520,300.2 1480,277.1 1480,323.3 	"/>
	<polygon fill="#ACC838" points="1600,346.4 1600,300.2 1640,277.1 1640,323.3 	"/>
	<polygon opacity="0.4" fill="#B2D048" points="1600,346.4 1600,300.2 1560,277.1 1560,323.3 	"/>
	<polygon fill="#ACC838" points="80,346.4 80,300.2 120,277.1 120,323.3 	"/>
	<polygon opacity="0.2" fill="#B2D048" points="80,346.4 80,300.2 40,277.1 40,323.3 	"/>
	<polygon fill="#ACC838" points="160,346.4 160,300.2 200,277.1 200,323.3 	"/>
	<polygon fill="#B2D048" points="160,346.4 160,300.2 120,277.1 120,323.3 	"/>
	<polygon fill="#C2D959" points="120,277.1 160,254 200,277.1 160,300.2 	"/>
	<polygon fill="#B2D048" points="240,346.4 240,300.2 200,277.1 200,323.3 	"/>
	<polygon opacity="0.4" fill="#C2D959" points="200,277.1 240,254 280,277.1 240,300.2 	"/>
	<polygon fill="#B2D048" points="320,346.4 320,300.2 280,277.1 280,323.3 	"/>
	<polygon fill="#C2D959" points="280,277.1 320,254 360,277.1 320,300.2 	"/>
	<polygon opacity="0.2" fill="#ACC838" points="360,415.7 360,369.5 400,346.4 400,392.6 	"/>
	<polygon fill="#C2D959" points="320,346.4 360,323.3 400,346.4 360,369.5 	"/>
	<polygon fill="#ACC838" points="440,415.7 440,369.5 480,346.4 480,392.6 	"/>
	<polygon opacity="0.4" fill="#C2D959" points="400,346.4 440,323.3 480,346.4 440,369.5 	"/>
	<polygon fill="#ACC838" points="520,415.7 520,369.5 560,346.4 560,392.6 	"/>
	<polygon opacity="0.4" fill="#B2D048" points="520,415.7 520,369.5 480,346.4 480,392.6 	"/>
	<polygon fill="#ACC838" points="600,415.7 600,369.5 640,346.4 640,392.6 	"/>
	<polygon opacity="0.4" fill="#B2D048" points="600,415.7 600,369.5 560,346.4 560,392.6 	"/>
	<polygon fill="#C2D959" points="560,346.4 600,323.3 640,346.4 600,369.5 	"/>
	<polygon opacity="0.4" fill="#ACC838" points="680,415.7 680,369.5 720,346.4 720,392.6 	"/>
	<polygon opacity="0.2" fill="#B2D048" points="680,415.7 680,369.5 640,346.4 640,392.6 	"/>
	<polygon fill="#ACC838" points="760,415.7 760,369.5 800,346.4 800,392.6 	"/>
	<polygon fill="#C2D959" points="720,346.4 760,323.3 800,346.4 760,369.5 	"/>
	<polygon opacity="0.2" fill="#ACC838" points="840,415.7 840,369.5 880,346.4 880,392.6 	"/>
	<polygon fill="#B2D048" points="840,415.7 840,369.5 800,346.4 800,392.6 	"/>
	<polygon opacity="0.4" fill="#ACC838" points="920,415.7 920,369.5 960,346.4 960,392.6 	"/>
	<polygon fill="#B2D048" points="920,415.7 920,369.5 880,346.4 880,392.6 	"/>
	<polygon opacity="0.2" fill="#C2D959" points="880,346.4 920,323.3 960,346.4 920,369.5 	"/>
	<polygon fill="#ACC838" points="1000,415.7 1000,369.5 1040,346.4 1040,392.6 	"/>
	<polygon fill="#C2D959" points="960,346.4 1000,323.3 1040,346.4 1000,369.5 	"/>
	<polygon opacity="0.2" fill="#B2D048" points="1080,415.7 1080,369.5 1040,346.4 1040,392.6 	"/>
	<polygon fill="#C2D959" points="1040,346.4 1080,323.3 1120,346.4 1080,369.5 	"/>
	<polygon fill="#ACC838" points="1160,415.7 1160,369.5 1200,346.4 1200,392.6 	"/>
	<polygon fill="#B2D048" points="1160,415.7 1160,369.5 1120,346.4 1120,392.6 	"/>
	<polygon opacity="0.2" fill="#C2D959" points="1120,346.4 1160,323.3 1200,346.4 1160,369.5 	"/>
	<polygon opacity="0.2" fill="#ACC838" points="1240,415.7 1240,369.5 1280,346.4 1280,392.6 	"/>
	<polygon opacity="0.2" fill="#B2D048" points="1240,415.7 1240,369.5 1200,346.4 1200,392.6 	"/>
	<polygon fill="#B2D048" points="1320,415.7 1320,369.5 1280,346.4 1280,392.6 	"/>
	<polygon fill="#C2D959" points="1280,346.4 1320,323.3 1360,346.4 1320,369.5 	"/>
	<polygon fill="#B2D048" points="1400,415.7 1400,369.5 1360,346.4 1360,392.6 	"/>
	<polygon opacity="0.2" fill="#C2D959" points="1360,346.4 1400,323.3 1440,346.4 1400,369.5 	"/>
	<polygon opacity="0.4" fill="#ACC838" points="1480,415.7 1480,369.5 1520,346.4 1520,392.6 	"/>
	<polygon fill="#B2D048" points="1480,415.7 1480,369.5 1440,346.4 1440,392.6 	"/>
	<polygon fill="#ACC838" points="1560,415.7 1560,369.5 1600,346.4 1600,392.6 	"/>
	<polygon opacity="0.2" fill="#C2D959" points="1520,346.4 1560,323.3 1600,346.4 1560,369.5 	"/>
	<polygon fill="#C2D959" points="0,346.4 40,323.3 80,346.4 40,369.5 	"/>
	<polygon opacity="0.4" fill="#ACC838" points="120,415.7 120,369.5 160,346.4 160,392.6 	"/>
	<polygon fill="#B2D048" points="120,415.7 120,369.5 80,346.4 80,392.6 	"/>
	<polygon opacity="0.2" fill="#ACC838" points="200,415.7 200,369.5 240,346.4 240,392.6 	"/>
	<polygon fill="#B2D048" points="200,415.7 200,369.5 160,346.4 160,392.6 	"/>
	<polygon opacity="0.2" fill="#C2D959" points="160,346.4 200,323.3 240,346.4 200,369.5 	"/>
	<polygon opacity="0.2" fill="#ACC838" points="280,415.7 280,369.5 320,346.4 320,392.6 	"/>
	<polygon fill="#B2D048" points="280,415.7 280,369.5 240,346.4 240,392.6 	"/>
	<polygon opacity="0.4" fill="#C2D959" points="240,346.4 280,323.3 320,346.4 280,369.5 	"/>
	<polygon opacity="0.4" fill="#ACC838" points="400,485 400,438.8 440,415.7 440,461.9 	"/>
	<polygon fill="#B2D048" points="400,485 400,438.8 360,415.7 360,461.9 	"/>
	<polygon opacity="0.2" fill="#ACC838" points="480,485 480,438.8 520,415.7 520,461.9 	"/>
	<polygon fill="#B2D048" points="480,485 480,438.8 440,415.7 440,461.9 	"/>
	<polygon opacity="0.2" fill="#C2D959" points="440,415.7 480,392.6 520,415.7 480,438.8 	"/>
	<polygon fill="#ACC838" points="560,485 560,438.8 600,415.7 600,461.9 	"/>
	<polygon fill="#C2D959" points="520,415.7 560,392.6 600,415.7 560,438.8 	"/>
	<polygon opacity="0.2" fill="#B2D048" points="640,485 640,438.8 600,415.7 600,461.9 	"/>
	<polygon opacity="0.2" fill="#B2D048" points="720,485 720,438.8 680,415.7 680,461.9 	"/>
	<polygon fill="#C2D959" points="680,415.7 720,392.6 760,415.7 720,438.8 	"/>
	<polygon opacity="0.4" fill="#ACC838" points="800,485 800,438.8 840,415.7 840,461.9 	"/>
	<polygon fill="#B2D048" points="800,485 800,438.8 760,415.7 760,461.9 	"/>
	<polygon opacity="0.4" fill="#ACC838" points="880,485 880,438.8 920,415.7 920,461.9 	"/>
	<polygon fill="#B2D048" points="880,485 880,438.8 840,415.7 840,461.9 	"/>
	<polygon fill="#ACC838" points="960,485 960,438.8 1000,415.7 1000,461.9 	"/>
	<polygon opacity="0.2" fill="#C2D959" points="920,415.7 960,392.6 1000,415.7 960,438.8 	"/>
	<polygon fill="#ACC838" points="1040,485 1040,438.8 1080,415.7 1080,461.9 	"/>
	<polygon opacity="0.4" fill="#B2D048" points="1040,485 1040,438.8 1000,415.7 1000,461.9 	"/>
	<polygon opacity="0.2" fill="#ACC838" points="1120,485 1120,438.8 1160,415.7 1160,461.9 	"/>
	<polygon fill="#B2D048" points="1120,485 1120,438.8 1080,415.7 1080,461.9 	"/>
	<polygon opacity="0.4" fill="#B2D048" points="1200,485 1200,438.8 1160,415.7 1160,461.9 	"/>
	<polygon fill="#C2D959" points="1160,415.7 1200,392.6 1240,415.7 1200,438.8 	"/>
	<polygon opacity="0.4" fill="#ACC838" points="1280,485 1280,438.8 1320,415.7 1320,461.9 	"/>
	<polygon fill="#B2D048" points="1280,485 1280,438.8 1240,415.7 1240,461.9 	"/>
	<polygon fill="#C2D959" points="1240,415.7 1280,392.6 1320,415.7 1280,438.8 	"/>
	<polygon opacity="0.2" fill="#ACC838" points="1360,485 1360,438.8 1400,415.7 1400,461.9 	"/>
	<polygon fill="#B2D048" points="1360,485 1360,438.8 1320,415.7 1320,461.9 	"/>
	<polygon fill="#C2D959" points="1320,415.7 1360,392.6 1400,415.7 1360,438.8 	"/>
	<polygon opacity="0.4" fill="#ACC838" points="1440,485 1440,438.8 1480,415.7 1480,461.9 	"/>
	<polygon fill="#B2D048" points="1440,485 1440,438.8 1400,415.7 1400,461.9 	"/>
	<polygon opacity="0.2" fill="#B2D048" points="1520,485 1520,438.8 1480,415.7 1480,461.9 	"/>
	<polygon fill="#C2D959" points="1480,415.7 1520,392.6 1560,415.7 1520,438.8 	"/>
	<polygon fill="#B2D048" points="1600,485 1600,438.8 1560,415.7 1560,461.9 	"/>
	<polygon opacity="0.4" fill="#ACC838" points="80,485 80,438.8 120,415.7 120,461.9 	"/>
	<polygon fill="#B2D048" points="80,485 80,438.8 40,415.7 40,461.9 	"/>
	<polygon opacity="0.2" fill="#C2D959" points="40,415.7 80,392.6 120,415.7 80,438.8 	"/>
	<polygon fill="#ACC838" points="160,485 160,438.8 200,415.7 200,461.9 	"/>
	<polygon opacity="0.4" fill="#B2D048" points="160,485 160,438.8 120,415.7 120,461.9 	"/>
	<polygon opacity="0.4" fill="#ACC838" points="240,485 240,438.8 280,415.7 280,461.9 	"/>
	<polygon opacity="0.4" fill="#B2D048" points="240,485 240,438.8 200,415.7 200,461.9 	"/>
	<polygon opacity="0.4" fill="#ACC838" points="320,485 320,438.8 360,415.7 360,461.9 	"/>
	<polygon fill="#B2D048" points="320,485 320,438.8 280,415.7 280,461.9 	"/>
	<polygon fill="#C2D959" points="280,415.7 320,392.6 360,415.7 320,438.8 	"/>
	<polygon opacity="0.2" fill="#ACC838" points="360,554.3 360,508.1 400,485 400,531.2 	"/>
	<polygon fill="#B2D048" points="360,554.3 360,508.1 320,485 320,531.2 	"/>
	<polygon fill="#C2D959" points="320,485 360,461.9 400,485 360,508.1 	"/>
	<polygon opacity="0.2" fill="#B2D048" points="440,554.3 440,508.1 400,485 400,531.2 	"/>
	<polygon fill="#C2D959" points="400,485 440,461.9 480,485 440,508.1 	"/>
	<polygon opacity="0.4" fill="#ACC838" points="520,554.3 520,508.1 560,485 560,531.2 	"/>
	<polygon fill="#B2D048" points="520,554.3 520,508.1 480,485 480,531.2 	"/>
	<polygon opacity="0.2" fill="#ACC838" points="600,554.3 600,508.1 640,485 640,531.2 	"/>
	<polygon fill="#B2D048" points="600,554.3 600,508.1 560,485 560,531.2 	"/>
	<polygon opacity="0.2" fill="#C2D959" points="560,485 600,461.9 640,485 600,508.1 	"/>
	<polygon opacity="0.2" fill="#ACC838" points="680,554.3 680,508.1 720,485 720,531.2 	"/>
	<polygon opacity="0.4" fill="#C2D959" points="640,485 680,461.9 720,485 680,508.1 	"/>
	<polygon opacity="0.4" fill="#ACC838" points="760,554.3 760,508.1 800,485 800,531.2 	"/>
	<polygon fill="#B2D048" points="760,554.3 760,508.1 720,485 720,531.2 	"/>
	<polygon fill="#C2D959" points="720,485 760,461.9 800,485 760,508.1 	"/>
	<polygon fill="#ACC838" points="840,554.3 840,508.1 880,485 880,531.2 	"/>
	<polygon opacity="0.2" fill="#C2D959" points="800,485 840,461.9 880,485 840,508.1 	"/>
	<polygon fill="#ACC838" points="920,554.3 920,508.1 960,485 960,531.2 	"/>
	<polygon fill="#C2D959" points="880,485 920,461.9 960,485 920,508.1 	"/>
	<polygon opacity="0.4" fill="#ACC838" points="1000,554.3 1000,508.1 1040,485 1040,531.2 	"/>
	<polygon opacity="0.2" fill="#B2D048" points="1000,554.3 1000,508.1 960,485 960,531.2 	"/>
	<polygon fill="#C2D959" points="960,485 1000,461.9 1040,485 1000,508.1 	"/>
	<polygon opacity="0.4" fill="#ACC838" points="1080,554.3 1080,508.1 1120,485 1120,531.2 	"/>
	<polygon fill="#B2D048" points="1080,554.3 1080,508.1 1040,485 1040,531.2 	"/>
	<polygon fill="#ACC838" points="1160,554.3 1160,508.1 1200,485 1200,531.2 	"/>
	<polygon fill="#C2D959" points="1120,485 1160,461.9 1200,485 1160,508.1 	"/>
	<polygon fill="#B2D048" points="1240,554.3 1240,508.1 1200,485 1200,531.2 	"/>
	<polygon fill="#C2D959" points="1200,485 1240,461.9 1280,485 1240,508.1 	"/>
	<polygon fill="#ACC838" points="1320,554.3 1320,508.1 1360,485 1360,531.2 	"/>
	<polygon opacity="0.2" fill="#B2D048" points="1320,554.3 1320,508.1 1280,485 1280,531.2 	"/>
	<polygon fill="#ACC838" points="1400,554.3 1400,508.1 1440,485 1440,531.2 	"/>
	<polygon opacity="0.4" fill="#B2D048" points="1400,554.3 1400,508.1 1360,485 1360,531.2 	"/>
	<polygon fill="#C2D959" points="1360,485 1400,461.9 1440,485 1400,508.1 	"/>
	<polygon fill="#ACC838" points="1480,554.3 1480,508.1 1520,485 1520,531.2 	"/>
	<polygon opacity="0.2" fill="#ACC838" points="1560,554.3 1560,508.1 1600,485 1600,531.2 	"/>
	<polygon fill="#B2D048" points="1560,554.3 1560,508.1 1520,485 1520,531.2 	"/>
	<polygon opacity="0.4" fill="#C2D959" points="1520,485 1560,461.9 1600,485 1560,508.1 	"/>
	<polygon opacity="0.4" fill="#ACC838" points="40,554.3 40,508.1 80,485 80,531.2 	"/>
	<polygon opacity="0.4" fill="#B2D048" points="40,554.3 40,508.1 0,485 0,531.2 	"/>
	<polygon fill="#C2D959" points="0,485 40,461.9 80,485 40,508.1 	"/>
	<polygon fill="#B2D048" points="120,554.3 120,508.1 80,485 80,531.2 	"/>
	<polygon opacity="0.2" fill="#C2D959" points="80,485 120,461.9 160,485 120,508.1 	"/>
	<polygon fill="#ACC838" points="200,554.3 200,508.1 240,485 240,531.2 	"/>
	<polygon fill="#C2D959" points="160,485 200,461.9 240,485 200,508.1 	"/>
	<polygon opacity="0.2" fill="#ACC838" points="280,554.3 280,508.1 320,485 320,531.2 	"/>
	<polygon fill="#C2D959" points="240,485 280,461.9 320,485 280,508.1 	"/>
</g>
<linearGradient id="SVGID_1_" gradientUnits="userSpaceOnUse" x1="819.2577" y1="-141" x2="819.2577" y2="561.9225">
	<stop  offset="0" style="stop-color:#000000;stop-opacity:0"/>
	<stop  offset="1" style="stop-color:#000000"/>
</linearGradient>
<rect x="-1.5" y="0" fill="url(#SVGID_1_)" width="1641.5" height="554.3"/>
</svg>
