<?xml version="1.0" encoding="utf-8"?>
<!-- Generator: Adobe Illustrator 18.0.0, SVG Export Plug-In . SVG Version: 6.00 Build 0)  -->
<!DOCTYPE svg PUBLIC "-//W3C//DTD SVG 1.1//EN" "http://www.w3.org/Graphics/SVG/1.1/DTD/svg11.dtd">
<svg version="1.1" id="Layer_1" xmlns="http://www.w3.org/2000/svg" xmlns:xlink="http://www.w3.org/1999/xlink" x="0px" y="0px"
	 viewBox="0 0 86 79.2" enable-background="new 0 0 86 79.2" xml:space="preserve">
<g>
	<path fill="#FFFFFF" d="M78.6,9.1h-8.5v4.5c0,3-1.7,4.6-4.7,4.6h-1.1c-3,0-5.5-1.6-5.5-4.6V9.1H27.2v4.5c0,3-2.4,4.6-5.4,4.6h-1.1
		c-3,0-4.9-1.6-4.9-4.6V9.1H7.7C4,9.1,0,12.4,0,16.2v53.3c0,5.7,5.5,9.7,11.2,9.7h64c5.7,0,10.9-4,10.9-9.7V16.2
		C86,12.4,82.4,9.1,78.6,9.1z M79.2,69.5c0,1.9-2.2,2.9-4.1,2.9h-64c-1.9,0-4.4-1-4.4-2.9v-31h72.4V69.5z"/>
	<g>
		<path fill="#FFFFFF" d="M25.6,18.1h-5.9c-0.9,0-1.6-0.7-1.6-1.6V1.6c0-0.9,0.7-1.6,1.6-1.6h5.9c0.9,0,1.6,0.7,1.6,1.6v14.9
			C27.2,17.4,26.4,18.1,25.6,18.1z"/>
		<path fill="#FFFFFF" d="M68.6,18.1h-5.9c-0.9,0-1.6-0.7-1.6-1.6V1.6c0-0.9,0.7-1.6,1.6-1.6h5.9c0.9,0,1.6,0.7,1.6,1.6v14.9
			C70.2,17.4,69.4,18.1,68.6,18.1z"/>
	</g>
</g>
</svg>
