<?xml version="1.0" encoding="utf-8"?>
<!-- Generator: Adobe Illustrator 18.0.0, SVG Export Plug-In . SVG Version: 6.00 Build 0)  -->
<!DOCTYPE svg PUBLIC "-//W3C//DTD SVG 1.1//EN" "http://www.w3.org/Graphics/SVG/1.1/DTD/svg11.dtd">
<svg version="1.1" id="Layer_1" xmlns="http://www.w3.org/2000/svg" xmlns:xlink="http://www.w3.org/1999/xlink" x="0px" y="0px"
	 viewBox="0 0 117.1 83.8" enable-background="new 0 0 117.1 83.8" xml:space="preserve">
<g>
<polygon fill="#C2D959" points="70.6,9 58.5,2 46.5,9 46.5,23 58.5,29.9 70.6,23"/>
<polygon fill="#B2D048" points="58.5,16 58.5,29.9 46.5,23 46.5,9"/>
<polygon fill="#ACC838" points="58.5,16 58.5,29.9 70.6,23 70.6,9"/>
<polygon fill="#C2D959" points="58.5,16 46.5,9 58.5,2 70.6,9"/>
<polygon fill="#C2D959" points="71.6,24.6 59.5,31.6 59.5,45.6 71.6,52.5 83.7,45.6 83.7,31.6"/>
<polygon fill="#B2D048" points="71.6,38.6 71.6,52.5 59.5,45.6 59.5,31.6"/>
<polygon fill="#ACC838" points="71.6,38.6 71.6,52.5 83.7,45.6 83.7,31.6"/>
<polygon fill="#C2D959" points="71.6,38.6 59.5,31.6 71.6,24.6 83.7,31.6"/>
<polygon fill="#C2D959" points="33.4,31.6 33.4,45.6 45.5,52.5 57.6,45.6 57.6,31.6 45.5,24.6"/>
<polygon fill="#B2D048" points="45.5,38.6 45.5,52.5 33.4,45.6 33.4,31.6"/>
<polygon fill="#ACC838" points="45.5,38.6 45.5,52.5 57.6,45.6 57.6,31.6"/>
<polygon fill="#C2D959" points="45.5,38.6 33.4,31.6 45.5,24.6 57.6,31.6"/>
<path fill="#E0E1E3" d="M84.2,80.9l-1.2,3l-4.7,0l6.6-17.1l4.9,0l6.5,17.1l-4.7,0l-1.1-3L84.2,80.9z M87.3,72L87.3,72l-1.9,5.5l3.7,0L87.3,72z"/>
<path fill="#E0E1E3" d="M97.6,66.7l6.8,0c3.7,0,6.2,1.7,6.2,5.6c0,4-2.2,5.8-6.1,5.8l-2.5,0l0,5.7l-4.5,0L97.6,66.7z M102.1,74.5l0.7,0c1.6,0,3.2,0,3.2-2.1c0-2.2-1.5-2.2-3.2-2.2l-0.7,0L102.1,74.5z"/>
<path fill="#E0E1E3" d="M117.1,83.8l-4.5,0l0-17.1l4.5,0L117.1,83.8z"/>
<path fill="#F48020" d="M9.2,76c-0.6-0.5-1.3-0.8-2.1-0.8c-1.6,0-2.8,1.2-2.8,2.8c0,1.7,1.2,2.8,2.9,2.8c0.7,0,1.5-0.3,2.1-0.8v3.5c-0.9,0.5-1.9,0.7-2.9,0.7c-3.4,0-6.3-2.6-6.3-6.1c0-3.7,2.8-6.3,6.5-6.3c0.9,0,1.9,0.2,2.7,0.7V76z"/>
<path fill="#F48020" d="M14.5,65v8.6h0c0.9-1.3,2.1-1.9,3.7-1.9c2.9,0,4.4,1.9,4.4,4.9v7.1h-4.1v-5.9c0-1.4-0.2-2.8-1.9-2.8c-1.6,0-2.1,1.4-2.1,2.8v5.9h-4.1V65H14.5z"/>
<path fill="#F48020" d="M28.1,67.7c0,1.3-1,2.3-2.3,2.3c-1.3,0-2.3-1-2.3-2.3c0-1.3,1-2.3,2.3-2.3C27.1,65.4,28.1,66.5,28.1,67.7M27.9,83.8h-4.1V72.2h4.1V83.8z"/>
<polygon fill="#F48020" points="33.3,76.4 37.6,72.2 43.3,72.2 37.4,77.6 43.6,83.8 37.8,83.8 33.3,79.1 33.3,83.8 29.2,83.8 29.2,65 33.3,65"/>
<polygon fill="#F48020" points="47.7,76.4 52,72.2 57.6,72.2 51.8,77.6 58,83.8 52.2,83.8 47.7,79.1 47.7,83.8 43.6,83.8 43.6,65 47.7,65"/>
<path fill="#F48020" d="M69.9,83.8h-4.1v-1.3h0c-0.7,1.2-2.1,1.7-3.5,1.7c-3.4,0-5.9-2.9-5.9-6.2c0-3.3,2.4-6.2,5.8-6.2c1.3,0,2.7,0.5,3.6,1.5v-1.1h4.1V83.8z M60.7,78c0,1.5,1,2.6,2.6,2.6c1.7,0,2.6-1.1,2.6-2.6c0-1.4-1-2.6-2.6-2.6C61.6,75.4,60.7,76.6,60.7,78"/>
</g>
</svg>
