<?xml version="1.0" encoding="utf-8"?>
<!-- Generator: Adobe Illustrator 18.0.0, SVG Export Plug-In . SVG Version: 6.00 Build 0)  -->
<!DOCTYPE svg PUBLIC "-//W3C//DTD SVG 1.1//EN" "http://www.w3.org/Graphics/SVG/1.1/DTD/svg11.dtd">
<svg version="1.1" id="Layer_1" xmlns="http://www.w3.org/2000/svg" xmlns:xlink="http://www.w3.org/1999/xlink" x="0px" y="0px"
	 viewBox="0 0 86 80" enable-background="new 0 0 86 80" xml:space="preserve">
<g>
	<path fill="#FFFFFF" d="M43,22.9c10.2,0,19.2,4.8,24.4,12.6L86,0H49.8L37.9,22.9C39.5,22.6,41.3,22.9,43,22.9z"/>
	<circle fill="#FFFFFF" cx="43" cy="52.3" r="22.1"/>
	<g>
		<path fill="#FFFFFF" d="M43,80c-15.3,0-27.7-12.4-27.7-27.7S27.7,24.6,43,24.6S70.7,37,70.7,52.3S58.3,80,43,80z M43,28.5
			c-13.1,0-23.7,10.6-23.7,23.7S29.9,76,43,76s23.7-10.6,23.7-23.7S56.1,28.5,43,28.5z"/>
	</g>
	<path fill="#FFFFFF" d="M35.7,23.8L42,11.4L36.2,0H0l18.5,35.5C22.5,29.5,28.6,25.6,35.7,23.8z"/>
</g>
</svg>
