<?xml version="1.0" encoding="utf-8"?>
<!-- Generator: Adobe Illustrator 18.0.0, SVG Export Plug-In . SVG Version: 6.00 Build 0)  -->
<!DOCTYPE svg PUBLIC "-//W3C//DTD SVG 1.1//EN" "http://www.w3.org/Graphics/SVG/1.1/DTD/svg11.dtd">
<svg version="1.1" id="Layer_1" xmlns="http://www.w3.org/2000/svg" xmlns:xlink="http://www.w3.org/1999/xlink" x="0px" y="0px"
	 viewBox="0 0 70.5 71.2" enable-background="new 0 0 70.5 71.2" xml:space="preserve">
<g>
	<rect x="-5.7" y="-5.4" fill="none" width="81.9" height="81.9"/>
	<g>
		<g>
			<polygon fill="#B2CF47" points="35.2,19.6 35.2,39.3 18.2,29.5 18.2,9.8 			"/>
			<polygon fill="#ADC837" points="35.2,19.6 35.2,39.3 52.3,29.5 52.3,9.8 			"/>
			<polygon fill="#C2DA5B" points="35.2,19.6 18.2,9.8 35.2,0 52.3,9.8 			"/>
		</g>
		<g>
			<polygon fill="#B2CF47" points="17,51.6 17,71.2 0,61.4 0,41.7 			"/>
			<polygon fill="#ADC837" points="17,51.6 17,71.2 34,61.4 34,41.7 			"/>
			<polygon fill="#C2DA5B" points="17,51.6 0,41.7 17,31.9 34,41.7 			"/>
		</g>
		<g>
			<polygon fill="#B2CF47" points="53.5,51.6 53.5,71.2 36.5,61.4 36.5,41.7 			"/>
			<polygon fill="#ADC837" points="53.5,51.6 53.5,71.2 70.5,61.4 70.5,41.7 			"/>
			<polygon fill="#C2DA5B" points="53.5,51.6 36.5,41.7 53.5,31.9 70.5,41.7 			"/>
		</g>
	</g>
</g>
</svg>
