<?xml version="1.0" encoding="utf-8"?>
<!-- Generator: Adobe Illustrator 18.0.0, SVG Export Plug-In . SVG Version: 6.00 Build 0)  -->
<!DOCTYPE svg PUBLIC "-//W3C//DTD SVG 1.1//EN" "http://www.w3.org/Graphics/SVG/1.1/DTD/svg11.dtd">
<svg version="1.1" id="Layer_1" xmlns="http://www.w3.org/2000/svg" xmlns:xlink="http://www.w3.org/1999/xlink" x="0px" y="0px"
	 viewBox="0 0 59.9 41.9" enable-background="new 0 0 59.9 41.9" xml:space="preserve">
<g>
	<rect x="-11" y="-20" fill="none" width="81.9" height="81.9"/>
	<g>
		<path fill="#EAE3CE" d="M59.9,38.8c0,1.7-1.4,3.1-3.1,3.1H3.1c-1.7,0-3.1-1.4-3.1-3.1V3.1C0,1.4,1.4,0,3.1,0h53.8
			c1.7,0,3.1,1.4,3.1,3.1V38.8z"/>
		<path fill="#C9BC97" d="M19.1,21.6L0.5,40.3c0.2,0.4,0.5,0.7,0.8,0.9L20,22.5L19.1,21.6z"/>
		<path fill="#C9BC97" d="M59.6,40.3L40.8,21.6L40,22.5l18.8,18.8C59.1,41,59.4,40.7,59.6,40.3z"/>
		<path fill="#C9BC97" d="M59.7,1.9L31.9,28.5c-0.5,0.5-1.1,0.7-1.7,0.7s-1.3-0.3-1.7-0.7L0.3,1.8C0.1,2.2,0,2.6,0,3.1v0.3
			l27.5,27.5c0.7,0.7,1.6,1.1,2.6,1.1s1.9-0.4,2.6-1.1L59.9,3.7V3.1C59.9,2.7,59.9,2.3,59.7,1.9z"/>
	</g>
</g>
</svg>
