<?xml version="1.0" encoding="utf-8"?>
<!-- Generator: Adobe Illustrator 18.0.0, SVG Export Plug-In . SVG Version: 6.00 Build 0)  -->
<!DOCTYPE svg PUBLIC "-//W3C//DTD SVG 1.1//EN" "http://www.w3.org/Graphics/SVG/1.1/DTD/svg11.dtd">
<svg version="1.1" id="Layer_1" xmlns="http://www.w3.org/2000/svg" xmlns:xlink="http://www.w3.org/1999/xlink" x="0px" y="0px"
	 viewBox="0 0 65.1 66.3" enable-background="new 0 0 65.1 66.3" xml:space="preserve">
<g>
	<rect x="-8.4" y="-7.8" fill="none" width="81.9" height="81.9"/>
	<g>
		<path fill="#F1C418" d="M65,55.8c0-0.5-0.2-1.1-0.5-1.7c-0.4-0.8-0.9-1.8-1.5-2.9c-3-5.1-8.3-12.6-9.5-20.4
			c-1.4-9.9,0.2-18.6-2.8-24.1l0,0c0,0,0,0,0,0c-0.3-0.5-0.6-1-1-1.4C45.5,0,32.5,0,32.5,0S19.6,0,15.3,5.3S13.1,20,11.5,30.8
			C10.4,38.6,5,46.1,2.1,51.2c-0.6,1.1-1.1,2-1.5,2.9c-0.3,0.7-0.5,1.3-0.5,1.8c-0.1,0.8-0.1,1.5,0,2c0,0,0,0,0,0
			c0.4,2.4,2.5,2.9,8.2,2.9c7,0,24.3,0,24.3,0s17.2,0,24.3,0S65.4,60,65,55.8z"/>
		<circle fill="#DD9B27" cx="32.6" cy="57.7" r="8.6"/>
		<path fill="#E0B824" d="M53.5,30.8c-1.4-9.9,0.2-18.6-2.8-24.1c0,0-5.7,27-25.9,38.9c-3.8,2.2-7.1,4-10.1,5.6H63
			C60,46.1,54.7,38.6,53.5,30.8z"/>
		<path fill="#E0B824" d="M0.1,57.9c0.4,2.4,2.5,2.9,8.2,2.9c7,0,24.3,0,24.3,0s17.2,0,24.3,0s8.6-0.7,8.2-4.9
			c0-0.5-0.2-1.1-0.5-1.7H8.9C5,56,2.1,57.1,0.1,57.9z"/>
		<path fill="#F1C418" d="M0.6,54.1c-0.3,0.7-0.5,1.3-0.5,1.8c-0.1,0.8-0.1,1.5,0,2c2.4-0.9,6-2.3,11-4.8c-0.8,0.4-1.5,0.7-2.2,1
			H0.6z"/>
		<path fill="#F1C418" d="M49.8,5.3C45.5,0,32.5,0,32.5,0S19.6,0,15.3,5.3S13.1,20,11.5,30.8C10.4,38.6,5,46.1,2.1,51.2h12.7
			c3-1.6,6.3-3.4,10.1-5.6C45.1,33.7,50.7,6.8,50.7,6.8C50.4,6.2,50.1,5.8,49.8,5.3z"/>
		<path fill="#F29D1F" d="M14.8,51.2L14.8,51.2c-1.3,0.7-2.6,1.3-3.7,1.9C12.2,52.5,13.5,51.9,14.8,51.2z"/>
		<path fill="#F29D1F" d="M0.6,54.1h8.3c0.7-0.3,1.4-0.6,2.2-1c1.2-0.6,2.4-1.2,3.7-1.9H2.1C1.4,52.3,0.9,53.2,0.6,54.1z"/>
		<path fill="#F07F22" d="M14.8,51.2c-2.2,1.2-4.1,2.1-5.9,2.9h55.6c-0.4-0.8-0.9-1.8-1.5-2.9H14.8z"/>
	</g>
</g>
</svg>
