<?xml version="1.0" encoding="utf-8"?>
<!-- Generator: Adobe Illustrator 18.0.0, SVG Export Plug-In . SVG Version: 6.00 Build 0)  -->
<!DOCTYPE svg PUBLIC "-//W3C//DTD SVG 1.1//EN" "http://www.w3.org/Graphics/SVG/1.1/DTD/svg11.dtd">
<svg version="1.1" id="Layer_1" xmlns="http://www.w3.org/2000/svg" xmlns:xlink="http://www.w3.org/1999/xlink" x="0px" y="0px"
	 viewBox="0 0 41.1 70.1" enable-background="new 0 0 41.1 70.1" xml:space="preserve">
<g>
	<g>
		<path fill="#3C4042" d="M41.1,68.3c0,1-0.8,1.8-1.8,1.8H1.8c-1,0-1.8-0.8-1.8-1.8V1.8C0,0.8,0.8,0,1.8,0h37.5c1,0,1.8,0.8,1.8,1.8
			V68.3z"/>
		<path fill="#789699" d="M38.1,59.4c0,0.1-0.1,0-0.2,0H3.7c-0.1,0,0.1,0.1,0.1,0V7.9c0-0.1-0.2-0.3-0.1-0.3h34.1
			c0.1,0,0.2,0.2,0.2,0.3V59.4z"/>
		<circle fill="#41464A" cx="20.8" cy="3.7" r="0.8"/>
		<path opacity="0.15" fill="#FFFFFF" d="M41.1,55.7L0,14.9V1.5C0,0.5,1.2,0,2.2,0h37.2c1,0,1.7,0.5,1.7,1.5V55.7z"/>
	</g>
	<rect x="-20.3" y="-5.8" fill="none" width="81.7" height="81.7"/>
	<path fill="#575A5C" d="M24.1,65.9h-7c-0.5,0-0.9-0.4-0.9-0.9v-0.4c0-0.5,0.4-0.9,0.9-0.9h7c0.5,0,0.9,0.4,0.9,0.9V65
		C25,65.5,24.6,65.9,24.1,65.9z"/>
</g>
</svg>
